<?xml version="1.0" standalone="no"?>
<!DOCTYPE svg PUBLIC "-//W3C//DTD SVG 20010904//EN"
 "http://www.w3.org/TR/2001/REC-SVG-20010904/DTD/svg10.dtd">
<svg version="1.0" xmlns="http://www.w3.org/2000/svg"
 width="500.000000pt" height="500.000000pt" viewBox="0 0 500.000000 500.000000"
 preserveAspectRatio="xMidYMid meet">

<g transform="translate(0.000000,500.000000) scale(0.100000,-0.100000)"
fill="#000000" stroke="none">
<path d="M1680 2852 l1 -559 -91 -287 c-74 -237 -90 -298 -90 -352 l0 -64
1000 0 1000 0 0 64 c0 60 -7 79 -130 352 l-131 289 1 558 0 557 -780 0 -780 0
0 -558z m1548 6 l2 -538 -25 0 c-14 0 -25 5 -25 10 0 6 -46 10 -119 10 -69 0
-122 -4 -126 -10 -4 -6 -173 -10 -475 -10 -302 0 -471 4 -475 10 -4 6 -57 10
-126 10 -73 0 -119 -4 -119 -10 0 -5 -11 -10 -25 -10 l-25 0 0 533 c0 294 3
537 7 540 3 4 349 6 767 5 l761 -3 3 -537z m-1310 -565 c-32 -2 -84 -2 -115 0
-32 2 -6 3 57 3 63 0 89 -1 58 -3z m1200 0 c-32 -2 -84 -2 -115 0 -32 2 -6 3
57 3 63 0 89 -1 58 -3z m-1378 -13 c0 -6 46 -10 119 -10 69 0 122 4 126 10 4
6 173 10 475 10 302 0 471 -4 475 -10 9 -14 245 -13 245 1 0 6 12 9 26 7 24
-3 37 -27 149 -278 l123 -275 -976 -3 c-536 -1 -977 0 -979 2 -4 3 39 143 158
524 8 24 16 32 35 32 13 0 24 -4 24 -10z m1740 -625 l0 -55 -980 0 -980 0 0
55 0 55 980 0 980 0 0 -55z"/>
<path d="M1825 3308 c-3 -7 -4 -215 -3 -463 l3 -450 640 0 640 0 0 460 0 460
-638 3 c-505 2 -639 0 -642 -10z m255 -20 c-63 -5 -119 -13 -124 -18 -4 -5
-12 -30 -17 -56 -11 -58 -27 -77 -68 -79 l-31 -2 0 84 0 83 178 -1 177 -2
-115 -9z m1009 -125 c-1 -76 -4 -127 -6 -113 -8 48 -25 78 -48 84 -13 3 -27
18 -33 33 -5 16 -13 37 -18 47 -6 16 -4 18 20 14 18 -4 24 -2 18 4 -6 6 -29
10 -52 10 -42 -1 -57 4 -120 38 l-35 19 138 1 137 0 -1 -137z"/>
<path d="M1856 3244 c-9 -24 -7 -54 4 -54 11 0 12 3 15 43 2 29 -9 36 -19 11z"/>
<path d="M3027 3274 c-11 -12 3 -24 29 -24 16 0 24 5 22 13 -5 13 -40 22 -51
11z"/>
<path d="M1787 2153 c-10 -17 -88 -285 -84 -289 2 -2 357 -3 789 -2 l784 3
-65 147 -66 148 -677 0 c-372 0 -679 -3 -681 -7z m103 -7 c0 -3 -4 -16 -10
-30 -8 -23 -15 -26 -55 -26 -25 0 -45 2 -45 4 0 3 4 16 10 30 8 23 15 26 55
26 25 0 45 -2 45 -4z m100 -10 c0 -36 -12 -46 -56 -46 -46 0 -47 1 -38 38 5
18 13 22 50 22 31 0 44 -4 44 -14z m106 -2 c-3 -9 -6 -22 -6 -30 0 -10 -13
-14 -48 -14 -48 0 -49 0 -44 30 4 29 6 30 54 30 42 0 49 -3 44 -16z m104 -14
c0 -29 -1 -30 -51 -30 -43 0 -50 3 -45 16 3 9 6 22 6 30 0 10 13 14 45 14 43
0 45 -1 45 -30z m100 0 c0 -29 -2 -30 -45 -30 -43 0 -45 1 -45 30 0 29 2 30
45 30 43 0 45 -1 45 -30z m110 0 c0 -29 -2 -30 -45 -30 -43 0 -45 1 -45 30 0
29 2 30 45 30 43 0 45 -1 45 -30z m104 14 c14 -37 7 -44 -44 -44 -49 0 -50 1
-50 30 0 29 2 30 44 30 31 0 46 -5 50 -16z m108 -14 c5 -30 4 -30 -44 -30 -47
0 -48 1 -48 30 0 29 2 30 44 30 41 0 44 -2 48 -30z m102 14 c14 -36 7 -44 -38
-44 -44 0 -56 10 -56 46 0 21 86 19 94 -2z m106 -10 c6 -14 10 -27 10 -30 0
-2 -22 -4 -50 -4 -49 0 -50 1 -50 30 0 28 2 30 40 30 34 0 42 -4 50 -26z m109
-4 l10 -30 -50 0 c-27 0 -49 3 -49 8 0 4 -3 17 -6 30 -6 20 -3 22 39 22 41 0
46 -3 56 -30z m101 11 c17 -34 11 -41 -34 -41 -40 0 -45 3 -55 30 l-10 30 44
0 c34 0 47 -5 55 -19z m108 -6 c16 -36 17 -35 -33 -35 -34 0 -47 5 -55 19 -17
34 -11 41 33 41 37 0 46 -4 55 -25z m-1282 -61 c-3 -9 -6 -22 -6 -30 0 -10
-14 -14 -50 -14 -27 0 -50 2 -50 4 0 3 4 16 10 30 8 23 15 26 56 26 38 0 45
-3 40 -16z m106 11 c3 -3 3 -17 0 -30 -4 -23 -9 -25 -53 -25 -51 0 -57 7 -39
41 8 14 21 19 49 19 21 0 40 -2 43 -5z m110 0 c3 -3 3 -17 0 -30 -4 -23 -9
-25 -53 -25 -51 0 -52 1 -43 38 5 18 13 22 48 22 24 0 45 -2 48 -5z m108 -25
c0 -29 -1 -30 -51 -30 -43 0 -50 3 -45 16 3 9 6 22 6 30 0 10 13 14 45 14 43
0 45 -1 45 -30z m110 0 c0 -29 -1 -30 -51 -30 -43 0 -50 3 -45 16 3 9 6 22 6
30 0 10 13 14 45 14 43 0 45 -1 45 -30z m110 0 c0 -29 -1 -30 -51 -30 -43 0
-50 3 -45 16 3 9 6 22 6 30 0 10 13 14 45 14 43 0 45 -1 45 -30z m110 0 c0
-29 -2 -30 -44 -30 -36 0 -45 4 -49 22 -9 32 -1 38 49 38 42 0 44 -1 44 -30z
m112 0 c4 -30 4 -30 -43 -30 -40 0 -48 3 -52 22 -9 32 -1 38 47 38 41 0 44 -2
48 -30z m108 4 c6 -14 10 -27 10 -30 0 -7 -100 -4 -100 4 0 4 -3 17 -6 30 -6
20 -3 22 40 22 41 0 48 -3 56 -26z m110 0 c6 -14 10 -27 10 -30 0 -7 -100 -4
-100 4 0 4 -3 17 -6 30 -6 20 -3 22 40 22 41 0 48 -3 56 -26z m110 0 c6 -14
10 -27 10 -30 0 -7 -100 -4 -100 4 0 4 -3 17 -6 30 -6 20 -3 22 40 22 41 0 48
-3 56 -26z m218 1 c7 -14 12 -28 12 -30 0 -8 -210 -5 -210 3 0 4 -3 17 -6 30
-6 22 -5 22 93 22 97 0 100 -1 111 -25z m-1328 -59 c0 -3 -4 -16 -10 -30 -8
-23 -15 -26 -55 -26 -46 0 -53 8 -39 44 4 12 20 16 55 16 27 0 49 -2 49 -4z
m110 -10 c0 -37 -12 -46 -61 -46 -51 0 -52 1 -43 38 6 19 13 22 55 22 36 0 49
-4 49 -14z m112 -16 c-4 -29 -6 -30 -53 -30 -48 0 -49 1 -49 30 0 30 1 30 53
30 l54 0 -5 -30z m116 3 c-3 -26 -7 -28 -55 -31 -55 -3 -57 -2 -47 36 6 19 13
22 56 22 48 0 49 -1 46 -27z m112 -3 c0 -29 -1 -30 -50 -30 -49 0 -50 1 -50
30 0 29 1 30 50 30 49 0 50 -1 50 -30z m115 9 c10 -30 -6 -41 -56 -37 -40 3
-44 6 -47 31 -3 26 -2 27 47 27 42 0 51 -3 56 -21z m115 -9 c0 -29 -1 -30 -50
-30 -49 0 -50 1 -50 30 0 29 1 30 50 30 49 0 50 -1 50 -30z m113 4 c5 -30 -6
-37 -59 -32 -34 3 -39 6 -42 31 -3 26 -2 27 46 27 45 0 50 -2 55 -26z m115 -6
c3 -27 2 -28 -47 -28 -37 0 -51 4 -51 14 0 8 -3 22 -6 31 -6 14 1 16 47 13 51
-3 54 -5 57 -30z m112 18 c0 -8 3 -21 6 -30 5 -13 -2 -16 -44 -16 -36 0 -52 4
-56 16 -14 37 -7 44 44 44 36 0 50 -4 50 -14z m114 -2 c14 -36 7 -44 -39 -44
-43 0 -65 16 -65 49 0 18 97 14 104 -5z m116 -10 c6 -14 10 -27 10 -30 0 -3
-23 -4 -52 -2 -47 3 -52 6 -59 31 -7 27 -7 27 42 27 44 0 51 -3 59 -26z m114
4 c9 -37 8 -38 -39 -38 -39 0 -46 3 -60 30 l-16 30 55 0 c47 0 54 -3 60 -22z
m-1388 -70 c-3 -13 -6 -26 -6 -30 0 -5 -25 -8 -55 -8 -44 0 -53 3 -50 15 3 8
7 22 10 30 3 11 19 15 56 15 48 0 51 -1 45 -22z m120 6 c-3 -9 -6 -22 -6 -30
0 -10 -14 -14 -56 -14 -47 0 -55 3 -50 16 3 9 6 22 6 30 0 10 14 14 56 14 47
0 55 -3 50 -16z m120 0 c-3 -9 -6 -22 -6 -30 0 -10 -14 -14 -56 -14 -47 0 -55
3 -50 16 3 9 6 22 6 30 0 10 14 14 56 14 47 0 55 -3 50 -16z m824 2 c0 -8 3
-21 6 -30 6 -14 -35 -16 -411 -16 -376 0 -417 2 -411 16 3 9 6 22 6 30 0 12
62 14 405 14 343 0 405 -2 405 -14z m120 -12 c6 -14 10 -27 10 -30 0 -7 -110
-4 -110 4 0 4 -3 17 -6 30 -6 21 -3 22 45 22 46 0 53 -3 61 -26z m119 -4 l10
-30 -55 0 c-29 0 -54 3 -54 8 0 4 -3 17 -6 30 -6 21 -3 22 44 22 47 0 51 -2
61 -30z m120 0 l10 -30 -54 0 c-50 0 -54 2 -64 30 l-10 30 54 0 c50 0 54 -2
64 -30z"/>
</g>
</svg>
